<svg width="1280" height="720" xmlns="http://www.w3.org/2000/svg" xmlns:xlink="http://www.w3.org/1999/xlink" overflow="hidden"><defs><clipPath id="clip0"><rect x="0" y="0" width="1280" height="720"/></clipPath></defs><g clip-path="url(#clip0)"><rect x="0" y="0" width="1280" height="720" fill="#FFFFFF"/><rect x="86.5001" y="149.5" width="201" height="58" stroke="#000000" stroke-width="1.33333" stroke-miterlimit="8"/><text fill="#FFFFFF" font-family="Calibri,Calibri_MSFontService,sans-serif" font-weight="400" font-size="24" transform="translate(111.712 185)">Client Interface</text><rect x="517" y="41" width="196" height="59" stroke="#000000" stroke-width="4" stroke-miterlimit="8" fill="#FFFFFF"/><text font-family="Calibri,Calibri_MSFontService,sans-serif" font-weight="400" font-size="24" transform="translate(547.74 78)">Student Login</text><rect x="517" y="237" width="196" height="59" stroke="#000000" stroke-width="4" stroke-miterlimit="8" fill="#FFFFFF"/><text font-family="Calibri,Calibri_MSFontService,sans-serif" font-weight="400" font-size="24" transform="translate(540.24 274)">Student Logout</text><rect x="944.5" y="149.5" width="200" height="58" stroke="#000000" stroke-width="1.33333" stroke-miterlimit="8"/><text fill="#FFFFFF" font-family="Calibri,Calibri_MSFontService,sans-serif" font-weight="400" font-size="24" transform="translate(1009.63 185)">Sender</text><path d="M0.280435-0.604815 224.544 103.38 223.983 104.589-0.280435 0.604815ZM224.737 99.7949 230.312 106.789 221.372 107.053Z" transform="matrix(1 0 0 -1 287.5 178.289)"/><path d="M287.741 177.878 511.835 264.645 511.354 265.889 287.259 179.122ZM511.796 261.056 517.812 267.674 508.907 268.516Z"/><path d="M713.781 70.8952 938.044 174.88 937.483 176.089 713.22 72.1049ZM938.237 171.295 943.812 178.289 934.872 178.553Z"/><path d="M0.240713-0.621693 224.335 86.1453 223.854 87.3887-0.240713 0.621693ZM224.296 82.5557 230.312 89.1744 221.407 90.016Z" transform="matrix(1 0 0 -1 713.5 267.674)"/><rect x="86" y="375" width="201" height="58" stroke="#000000" stroke-width="4" stroke-miterlimit="8" fill="#FFFFFF"/><text font-family="Calibri,Calibri_MSFontService,sans-serif" font-weight="400" font-size="24" transform="translate(112.629 412)">Admin Console</text><path d="M0.666667-8.29966e-07 0.666868 161.994-0.666465 161.994-0.666667 8.29966e-07ZM4.0002 160.66 0.000209974 168.66-3.9998 160.66Z" transform="matrix(-1 -8.74228e-08 -8.74228e-08 1 186.5 207.5)"/><text font-family="Calibri,Calibri_MSFontService,sans-serif" font-weight="400" font-size="24" transform="translate(195.729 279)">Password<tspan x="0" y="29">Protected</tspan></text><rect x="439.5" y="543.5" width="201" height="57" stroke="#000000" stroke-width="1.33333" stroke-miterlimit="8"/><text fill="#FFFFFF" font-family="Calibri,Calibri_MSFontService,sans-serif" font-weight="400" font-size="24" transform="translate(491.52 579)">Local Port</text><rect x="439.5" y="459.5" width="201" height="58" stroke="#000000" stroke-width="1.33333" stroke-miterlimit="8"/><text fill="#FFFFFF" font-family="Calibri,Calibri_MSFontService,sans-serif" font-weight="400" font-size="24" transform="translate(485.177 495)">Server Port</text><rect x="439.5" y="375.5" width="201" height="58" stroke="#000000" stroke-width="1.33333" stroke-miterlimit="8"/><text fill="#FFFFFF" font-family="Calibri,Calibri_MSFontService,sans-serif" font-weight="400" font-size="24" transform="translate(496.436 412)">Server IP</text><path d="M0-0.666667 139.749-0.666667 139.749 246.397 138.416 246.397 138.416 0 139.082 0.666667 0 0.666667ZM143.082 245.064 139.082 253.064 135.082 245.064Z" transform="matrix(-4.37114e-08 1 1 4.37114e-08 186.5 433.5)"/><path d="M0-0.666667 55.529-0.666667 55.529 246.397 54.1957 246.397 54.1957 0 54.8624 0.666667 0 0.666667ZM58.8624 245.064 54.8624 253.064 50.8624 245.064Z" transform="matrix(-4.37114e-08 1 1 4.37114e-08 186.5 433.5)"/><path d="M287.5 403.833 433.494 403.833 433.494 405.167 287.5 405.167ZM432.161 400.5 440.161 404.5 432.161 408.5Z"/><rect x="439.5" y="627.5" width="201" height="58" stroke="#000000" stroke-width="1.33333" stroke-miterlimit="8"/><text fill="#FFFFFF" font-family="Calibri,Calibri_MSFontService,sans-serif" font-weight="400" font-size="24" transform="translate(456.03 664)">File Transfer Path</text><path d="M0-0.666667 223.969-0.666667 223.969 246.397 222.636 246.397 222.636 0 223.303 0.666667 0 0.666667ZM227.303 245.064 223.303 253.064 219.303 245.064Z" transform="matrix(-4.37114e-08 1 1 4.37114e-08 186.5 433.5)"/><rect x="769" y="459" width="201" height="58" stroke="#000000" stroke-width="4" stroke-miterlimit="8" fill="#FFFFFF"/><text font-family="Calibri,Calibri_MSFontService,sans-serif" font-weight="400" font-size="24" transform="translate(784.935 495)">Control Protocols</text><path d="M640.864 403.941 764.01 484.049 763.282 485.166 640.137 405.059ZM764.71 480.528 769.234 488.243 760.347 487.234Z"/><path d="M5.43688e-07-0.666667 122.068-0.666567 122.068 0.666766-5.43688e-07 0.666667ZM120.734-3.9999 128.734 0.000104987 120.734 4.0001Z" transform="matrix(1 0 0 -1 640.5 488.5)"/><path d="M0.363526-0.558832 123.51 79.5491 122.783 80.6667-0.363526 0.558832ZM124.21 76.0278 128.735 83.7431 119.847 82.7338Z" transform="matrix(1 0 0 -1 640.5 572.243)"/><text font-family="Calibri,Calibri_MSFontService,sans-serif" font-weight="400" font-size="24" transform="translate(676.682 480)">On<tspan x="-22.1467" y="29">Chang</tspan><tspan x="38.6534" y="29">e</tspan></text><path d="M0-0.666667 75.0888-0.666667 75.0888 274.617 73.7555 274.617 73.7555 0 74.4221 0.666667 0 0.666667ZM78.4221 273.284 74.4221 281.284 70.4221 273.284Z" transform="matrix(1 0 0 -1 970.5 488.784)"/><path d="M776 657C776 637.118 819.428 621 873 621 926.572 621 970 637.118 970 657 970 676.882 926.572 693 873 693 819.428 693 776 676.882 776 657Z" stroke="#000000" stroke-width="4" stroke-miterlimit="8" fill="#FFFFFF" fill-rule="evenodd"/><text font-family="Calibri,Calibri_MSFontService,sans-serif" font-weight="400" font-size="24" transform="translate(838.811 650)">Shared<tspan x="-7.88666" y="29">Memor</tspan><tspan x="64.9" y="29">y</tspan></text><path d="M640.504 655.833 769.764 656.514 769.757 657.847 640.497 657.167ZM768.448 653.174 776.427 657.216 768.406 661.174Z"/></g></svg>
