<svg width="1280" height="720" xmlns="http://www.w3.org/2000/svg" xmlns:xlink="http://www.w3.org/1999/xlink" overflow="hidden"><defs><clipPath id="clip0"><rect x="0" y="0" width="1280" height="720"/></clipPath></defs><g clip-path="url(#clip0)"><rect x="0" y="0" width="1280" height="720" fill="#FFFFFF"/><path d="M161.5 84.5001 161.5 612.94" stroke="#000000" stroke-width="1.33333" stroke-miterlimit="8" stroke-dasharray="10.6667 4" fill="none" fill-rule="evenodd"/><text font-family="Calibri,Calibri_MSFontService,sans-serif" font-weight="400" font-size="24" transform="translate(608.498 165)">Switch</text><path d="M388.5 116.667C388.5 109.947 393.947 104.5 400.667 104.5L561.333 104.5C568.053 104.5 573.5 109.947 573.5 116.667L573.5 165.333C573.5 172.053 568.053 177.5 561.333 177.5L400.667 177.5C393.947 177.5 388.5 172.053 388.5 165.333Z" stroke="#000000" stroke-width="1.33333" stroke-miterlimit="8" fill-rule="evenodd"/><text fill="#FFFFFF" font-family="Calibri,Calibri_MSFontService,sans-serif" font-weight="400" font-size="24" transform="translate(438.85 148)">Receiver</text><path d="M388.5 478.667C388.5 471.947 393.947 466.5 400.667 466.5L561.333 466.5C568.053 466.5 573.5 471.947 573.5 478.667L573.5 527.333C573.5 534.053 568.053 539.5 561.333 539.5L400.667 539.5C393.947 539.5 388.5 534.053 388.5 527.333Z" stroke="#000000" stroke-width="1.33333" stroke-miterlimit="8" fill-rule="evenodd"/><text fill="#FFFFFF" font-family="Calibri,Calibri_MSFontService,sans-serif" font-weight="400" font-size="24" transform="translate(446.106 510)">Sender</text><rect x="918.5" y="290.5" width="201" height="58" stroke="#000000" stroke-width="1.33333" stroke-miterlimit="8"/><text fill="#FFFFFF" font-family="Calibri,Calibri_MSFontService,sans-serif" font-weight="400" font-size="24" transform="translate(944.005 327)">Client Interface</text><path d="M942 504.5C942 465.012 976.026 433 1018 433 1059.97 433 1094 465.012 1094 504.5 1094 543.988 1059.97 576 1018 576 976.026 576 942 543.988 942 504.5Z" stroke="#000000" stroke-width="4" stroke-miterlimit="8" fill="#FFFFFF" fill-rule="evenodd"/><text font-family="Calibri,Calibri_MSFontService,sans-serif" font-weight="400" font-size="24" transform="translate(985.387 512)">Scripts</text><path d="M0.666651-0.00461686 1.20883 78.283-0.124473 78.2923-0.666651 0.00461686ZM4.53285 76.9266 0.588346 84.9541-3.46696 76.982Z" transform="matrix(-1 -8.74228e-08 -8.74228e-08 1 1019.09 348.5)"/><path d="M941.938 506.075 580.163 504.201 580.17 502.868 941.945 504.742ZM581.479 507.541 573.5 503.5 581.521 499.542Z"/><path d="M573.5 139.833 700.12 139.833 700.12 141.167 573.5 141.167ZM698.787 136.5 706.787 140.5 698.787 144.5Z"/><path d="M161.5 139.833 381.182 139.833 381.182 141.167 161.5 141.167ZM379.849 136.5 387.849 140.5 379.849 144.5Z"/><path d="M3.09219e-07-0.666667 219.682-0.666565 219.682 0.666769-3.09219e-07 0.666667ZM218.349-3.9999 226.349 0.000104987 218.349 4.0001Z" transform="matrix(-1 -8.74228e-08 -8.74228e-08 1 387.849 503.5)"/><path d="M707 140.5C707 101.012 741.026 69 783 69 824.974 69 859 101.012 859 140.5 859 179.988 824.974 212 783 212 741.026 212 707 179.988 707 140.5Z" stroke="#000000" stroke-width="4" stroke-miterlimit="8" fill="#FFFFFF" fill-rule="evenodd"/><text font-family="Calibri,Calibri_MSFontService,sans-serif" font-weight="400" font-size="24" transform="translate(750.232 148)">Scripts<tspan x="-639.201" y="523">Socket Interface</tspan><tspan x="277.202" y="251">Switch</tspan><tspan x="-58.3566" y="383">Control and Data</tspan></text></g></svg>
